<?xml version="1.0" encoding="utf-8"?>
<!-- Generator: Adobe Illustrator 27.5.0, SVG Export Plug-In . SVG Version: 6.00 Build 0)  -->
<svg version="1.1" xmlns="http://www.w3.org/2000/svg" xmlns:xlink="http://www.w3.org/1999/xlink" x="0px" y="0px"
	 viewBox="0 0 500 500" style="enable-background:new 0 0 500 500;" xml:space="preserve">
<g id="Background_Simple">
	<g>
		<path style="fill:#C6FF00;" d="M208.977,96.125c-19.779,8.478-39.079,21.789-55.297,34.197
			c-28.222,21.591-54.023,47.994-71.917,77.572c-21.693,35.857-22.122,77.495-8.235,109.097
			c7.075,16.101,18.132,30.234,33.089,39.864c19.544,12.582,42.917,9.332,67.429,10.426c44.74,1.996,63.194,46.775,97.698,64.529
			c45.337,23.329,108.592-1.87,148.065-44.464c20.544-22.168,32.921-49.744,29.006-75.561c-4.152-27.38-26.091-46.3-46.747-61.705
			c-17.839-13.305-33.437-29.133-45.996-47.212c-12.177-17.529-19.086-37.834-29.51-56.392
			c-16.987-30.243-41.626-62.035-84.729-59.015C231.028,88.218,219.929,91.431,208.977,96.125z"/>
		<path style="opacity:0.7;fill:#FFFFFF;" d="M208.977,96.125c-19.779,8.478-39.079,21.789-55.297,34.197
			c-28.222,21.591-54.023,47.994-71.917,77.572c-21.693,35.857-22.122,77.495-8.235,109.097
			c7.075,16.101,18.132,30.234,33.089,39.864c19.544,12.582,42.917,9.332,67.429,10.426c44.74,1.996,63.194,46.775,97.698,64.529
			c45.337,23.329,108.592-1.87,148.065-44.464c20.544-22.168,32.921-49.744,29.006-75.561c-4.152-27.38-26.091-46.3-46.747-61.705
			c-17.839-13.305-33.437-29.133-45.996-47.212c-12.177-17.529-19.086-37.834-29.51-56.392
			c-16.987-30.243-41.626-62.035-84.729-59.015C231.028,88.218,219.929,91.431,208.977,96.125z"/>
	</g>
</g>
<g id="Character_3">
	<g>
		<path style="fill:#263238;" d="M439.669,328.586c0,1.587-16.268,2.873-36.335,2.873c-20.067,0-36.335-1.286-36.335-2.873
			c0-1.587,16.267-2.873,36.335-2.873C423.401,325.714,439.669,327,439.669,328.586z"/>
		<g>
			<path style="fill:#263238;stroke:#263238;stroke-linecap:round;stroke-linejoin:round;stroke-miterlimit:10;" d="
				M365.182,176.373c0,0-3.903-2.024-3.903-5.637c0-3.614,8.529-6.939,15.756-5.927c7.227,1.012,10.697,9.829,10.118,14.889
				c-0.578,5.059-0.145,8.529,4.626,11.853c4.77,3.325,13.443,13.588,9.974,18.792c-3.469,5.204-7.661,6.938-4.481,10.986
				c3.18,4.047,3.758,8.673-0.434,11.853c-4.192,3.18-9.107,3.903-13.877,1.59c-4.77-2.313-9.685-10.697-8.384-16.912
				c1.301-6.216-2.891-24.429-4.047-30.934C369.374,180.421,368.073,176.662,365.182,176.373z"/>
			<path style="fill:#FFFFFF;stroke:#263238;stroke-linecap:round;stroke-linejoin:round;stroke-miterlimit:10;" d="
				M369.952,225.809c0,0-6.649,5.927-9.107,7.661c-2.457,1.735-4.047,1.59-4.915,1.59c-0.867,0-3.035-1.012-4.192,0.145
				c-1.156,1.156-2.891,4.481-2.457,4.77c0.434,0.289,4.047-2.313,4.481-2.313c0.434,0,1.59-0.145,1.59-0.145
				s-3.18,2.313-2.457,2.747c0.723,0.434,2.602-0.867,3.325-1.301c0.723-0.434,3.18-2.891,3.18-2.891s8.095-4.336,9.974-4.77
				c1.879-0.434,3.614-3.614,3.469-4.626C372.698,225.665,370.819,224.942,369.952,225.809z"/>
			<path style="fill:#C6FF00;stroke:#263238;stroke-linecap:round;stroke-linejoin:round;stroke-miterlimit:10;" d="
				M368.073,189.961c0,0,1.879,2.313,1.879,5.059c0,2.747-4.192,7.806-5.637,12.142c-1.445,4.337-0.289,7.228,0.867,8.818
				c1.156,1.59,3.18,4.192,3.325,5.637c0.145,1.445,0.723,4.047,0.723,4.047s4.915,1.446,14.599-2.457
				c0,0,1.012-22.261,0.723-25.152c-0.289-2.891-4.192-4.77-6.071-5.059c-1.879-0.289-4.047-1.446-4.77-2.891
				c-0.723-1.446-1.012-2.746-1.012-2.746L368.073,189.961z"/>
			<path style="fill:#FFFFFF;stroke:#263238;stroke-linecap:round;stroke-linejoin:round;stroke-miterlimit:10;" d="
				M377.371,192.727c-1.554-0.486-3.078-1.456-3.661-2.621c-0.723-1.446-1.012-2.746-1.012-2.746l-4.626,2.602
				c0,0,1.879,2.313,1.879,5.059c0,1.251-0.872,2.984-1.956,4.908c0.845,1.822,2.415,3.776,4.947,1.935
				C375.489,200.012,376.763,195.762,377.371,192.727z"/>
			<path style="fill:#FFFFFF;stroke:#263238;stroke-linecap:round;stroke-linejoin:round;stroke-miterlimit:10;" d="
				M367.844,170.531c0,0-3.032,2.44-3.559,4.546c-0.526,2.106-2.408,7.037-2.057,8.792c0.351,1.755,0.702,7.196,2.808,7.722
				c2.106,0.527,8.775-3.686,9.828-5.616c1.053-1.931,1.931-6.845-0.351-11.583C372.231,169.653,368.721,168.776,367.844,170.531z"
				/>
			<path style="fill:#263238;stroke:#263238;stroke-linecap:round;stroke-linejoin:round;stroke-miterlimit:10;" d="
				M367.141,168.776c0,0,4.212,4.037,4.739,9.302c0.526,5.265-1.579,11.057,2.984,14.918c4.563,3.861,12.11-0.527,12.11-0.527
				s-4.914-3.51-5.792-9.477c-0.878-5.967-2.282-11.408-5.09-13.163C373.284,168.074,368.194,168.074,367.141,168.776z"/>
			<path style="fill:#C6FF00;stroke:#263238;stroke-linecap:round;stroke-linejoin:round;stroke-miterlimit:10;" d="
				M425.025,266.573c0,0,4.77-2.746,5.348-2.457c0.578,0.289,6.071,7.517,6.216,8.239c0.145,0.723-0.867,1.156-1.446,0.867
				c-0.578-0.289-5.204-3.614-6.36-3.758c-1.156-0.145-3.036-0.578-3.036-0.578L425.025,266.573z"/>
			<path style="fill:#C6FF00;stroke:#263238;stroke-linecap:round;stroke-linejoin:round;stroke-miterlimit:10;" d="
				M377.035,318.611c0,0-0.289,3.614-1.012,5.059c-0.723,1.446-3.325,3.903-3.325,4.481c0,0.578,0.434,0.723,1.156,0.723
				c0.723,0,3.614-0.867,4.915-2.313c1.301-1.445,1.59-2.891,2.024-3.469c0.434-0.578,2.168-1.301,2.313-2.602
				c0.145-1.301-1.735-3.469-1.735-3.469L377.035,318.611z"/>
			<g>
				<path style="fill:#263238;stroke:#263238;stroke-linecap:round;stroke-linejoin:round;stroke-miterlimit:10;" d="
					M369.229,225.665c0,0-3.469,21.683-3.036,33.391c0.434,11.709,6.649,40.474,8.095,46.545c1.445,6.071,2.746,13.01,2.746,13.01
					l4.336-1.59c0,0,1.301-14.311,0.145-23.273c-1.156-8.962-2.746-22.405-2.313-26.742c0.434-4.337,0.434-10.986,0.434-10.986
					s5.927,20.092,8.384,24.284c2.457,4.192,3.758,4.626,5.637,4.481s19.081-8.384,21.538-9.829
					c2.457-1.445,10.552-6.071,10.552-6.071l-0.723-2.313c0,0-11.998,3.325-16.768,4.915c-4.77,1.59-11.564,3.614-11.564,3.614
					s-1.301-16.334-2.891-25.585c-1.59-9.251-7.806-24.284-9.974-26.308C383.828,223.208,379.059,225.954,369.229,225.665z"/>
				
					<line style="fill:none;stroke:#FFFFFF;stroke-linecap:round;stroke-linejoin:round;stroke-miterlimit:10;" x1="379.85" y1="256.741" x2="376.346" y2="243.66"/>
			</g>
			<g>
				<path style="fill:#C6FF00;stroke:#263238;stroke-linecap:round;stroke-linejoin:round;stroke-miterlimit:10;" d="
					M379.047,196.976c0,0-1.706,2.771-0.853,5.969c0.853,3.198,6.396,19.4,6.396,19.4s-6.183,4.051-9.594,6.396
					c-3.411,2.345-8.741,4.904-8.741,4.904s-1.919-0.853-3.411,0c-1.492,0.853-4.477,4.477-3.837,4.903
					c0.64,0.426,3.624-1.919,3.624-1.919s2.771,0.426,4.051,0.426c1.279,0,3.624-2.132,3.624-2.132s20.253-9.594,20.893-9.594
					c0.64,0-6.822-27.289-6.822-27.289s-1.279-2.132-3.198-2.345"/>
				<path style="fill:#FFFFFF;stroke:#263238;stroke-linecap:round;stroke-linejoin:round;stroke-miterlimit:10;" d="
					M389.776,218.507l-6.041,1.331c0.518,1.525,0.854,2.507,0.854,2.507s-6.183,4.051-9.594,6.396
					c-3.411,2.345-8.741,4.903-8.741,4.903s-1.919-0.853-3.411,0c-1.492,0.853-4.477,4.477-3.837,4.903
					c0.64,0.426,3.624-1.919,3.624-1.919s2.771,0.426,4.051,0.426c1.279,0,3.624-2.132,3.624-2.132s20.253-9.594,20.893-9.594
					C391.407,225.33,390.752,222.42,389.776,218.507z"/>
			</g>
		</g>
	</g>
</g>
<g id="Character_2">
	<g>
		<g>
			<path style="fill:#263238;" d="M219.504,219.903c0,1.587-16.268,2.873-36.335,2.873c-20.067,0-36.335-1.286-36.335-2.873
				c0-1.587,16.268-2.873,36.335-2.873C203.237,217.03,219.504,218.316,219.504,219.903z"/>
			<g>
				<polygon style="fill:#C6FF00;stroke:#263238;stroke-linecap:round;stroke-linejoin:round;stroke-miterlimit:10;" points="
					188.876,81.676 176.147,107.813 179.957,109.982 191.05,95.478 				"/>
				<path style="fill:#C6FF00;stroke:#263238;stroke-linecap:round;stroke-linejoin:round;stroke-miterlimit:10;" d="
					M223.131,79.778l6.565,30.843l11.36,11.652c0,0,7.282,1.748,8.156,2.33c0.874,0.583,2.622,3.495,2.622,3.495l-1.165,0.583
					l-5.243-2.33h-1.748l3.204,2.622l-0.613,0.584l-8.125-5.827l-13.691-10.195l-4.661-9.613L223.131,79.778z"/>
				<path style="fill:#FFFFFF;stroke:#263238;stroke-linecap:round;stroke-linejoin:round;stroke-miterlimit:10;" d="
					M249.213,124.603c-0.874-0.583-8.156-2.33-8.156-2.33l-11.36-11.652l-0.445-2.09l-5.596,3.358l0.798,1.645l13.691,10.195
					l8.125,5.827l0.613-0.584l-3.204-2.622h1.748l5.243,2.33l1.165-0.583C251.834,128.098,250.086,125.186,249.213,124.603z"/>
				<path style="fill:#C6FF00;stroke:#263238;stroke-linecap:round;stroke-linejoin:round;stroke-miterlimit:10;" d="
					M200.619,76.997l-11.786,4.635c0,0,3.311,20.393,3.443,24.101c0.132,3.708-0.794,13.64,0,14.699
					c0.795,1.059,2.781,1.192,2.781,1.192l24.193-0.128c0,0,2.071-1.036,1.243-4.764c-0.46-2.068,0.519-18.415,0.784-21.858
					c0.265-3.443,1.854-15.096,1.854-15.096s-9.799-2.781-12.448-3.178C208.035,76.203,202.606,75.673,200.619,76.997z"/>
				<path style="fill:#FFFFFF;stroke:#263238;stroke-linecap:round;stroke-linejoin:round;stroke-miterlimit:10;" d="
					M202.991,73.651c0,0-2.447,0.734-2.936,1.223c-0.489,0.489-0.856,3.059-1.346,4.404c-0.489,1.346-2.08,3.67-1.59,3.793
					c0.489,0.122,4.649-1.958,4.649-1.958l4.771,5.407l4.527-5.651c0,0,3.548,2.692,3.793,2.325c0.245-0.367-1.59-4.771-1.713-6.607
					c-0.122-1.835-2.814-2.447-4.404-2.569C207.151,73.896,202.991,73.651,202.991,73.651z"/>
				<polygon style="fill:#FFFFFF;stroke:#263238;stroke-linecap:round;stroke-linejoin:round;stroke-miterlimit:10;" points="
					201.943,70.688 201.943,77.844 206.403,86.057 210.655,77.741 210.655,70.273 				"/>
				<g>
					<path style="fill:#FFFFFF;stroke:#263238;stroke-linecap:round;stroke-linejoin:round;stroke-miterlimit:10;" d="M200.06,62.61
						c0,0-1.804-3.207-2.806-1.403c-1.002,1.804,0.401,5.612,1.002,6.615c0.601,1.002,1.604-0.601,1.604-0.601"/>
					<path style="fill:#FFFFFF;stroke:#263238;stroke-linecap:round;stroke-linejoin:round;stroke-miterlimit:10;" d="
						M212.982,62.61c0,0,1.804-3.207,2.806-1.403c1.002,1.804-0.401,5.612-1.002,6.615c-0.601,1.002-1.603-0.601-1.603-0.601"/>
					<path style="fill:#FFFFFF;stroke:#263238;stroke-linecap:round;stroke-linejoin:round;stroke-miterlimit:10;" d="
						M213.891,62.009c0,5.646-3.32,13.429-7.416,13.429c-4.096,0-7.416-7.784-7.416-13.429c0-5.646,3.32-10.222,7.416-10.222
						C210.57,51.786,213.891,56.363,213.891,62.009z"/>
					<path style="fill:#263238;stroke:#263238;stroke-linecap:round;stroke-linejoin:round;stroke-miterlimit:10;" d="
						M212.315,59.175c0,0-0.519,1.452,0.104,2.074c0.622,0.622,0.519,1.556,0.415,2.8c-0.104,1.245,0.207,1.971,0.622,1.556
						c0.415-0.415,0.83-6.223,0.83-6.638C214.285,58.552,212.315,59.175,212.315,59.175z"/>
					<path style="fill:#263238;stroke:#263238;stroke-linecap:round;stroke-linejoin:round;stroke-miterlimit:10;" d="
						M199.142,61.145l0.208,3.215c0,0,0.622,0.207,0.83-0.415c0.207-0.622-0.311-2.593,0.207-3.63
						c0.519-1.037,2.489-1.556,2.593-2.282c0.104-0.726-1.037-2.075-1.037-2.593c0-0.519,0.311-1.037,2.904,1.452
						c2.593,2.489,7.364,3.008,9.854,2.386c2.489-0.622-0.519-4.356-1.141-5.186c-0.622-0.83,1.66-0.208,0.415-2.282
						c-1.245-2.074-5.601-3.423-9.957-1.867c-4.356,1.556-6.846,3.734-6.223,5.912C198.416,58.034,199.142,61.145,199.142,61.145z"
						/>
				</g>
				<path style="fill:#263238;stroke:#263238;stroke-linecap:round;stroke-linejoin:round;stroke-miterlimit:10;" d="M226.5,210.558
					c0,0-2.693-37.075-3.314-51.987c-0.621-14.913-3.728-37.903-3.728-37.903l-9.295-1.133h-7.714l-10.172,0.898
					c0,0-1.724,3.649-2.32,10.764c-0.657,7.844-0.205,19.555-0.531,27.374c-0.621,14.913-3.314,51.987-3.314,51.987l-2.278,2.278
					v1.657l6.214,2.485l16.155-75.806l0.104-0.173l0.104,0.173l16.155,75.806l6.214-2.485v-1.657L226.5,210.558z"/>
				<g>
					<polygon style="fill:#C6FF00;stroke:#263238;stroke-linecap:round;stroke-linejoin:round;stroke-miterlimit:10;" points="
						183.833,214.494 177.206,220.086 177.206,221.329 189.426,221.329 190.047,216.979 					"/>
					<polygon style="fill:#FFFFFF;stroke:#263238;stroke-linecap:round;stroke-linejoin:round;stroke-miterlimit:10;" points="
						189.426,221.329 189.603,220.086 177.206,220.086 177.206,221.329 					"/>
				</g>
				<g>
					<polygon style="fill:#C6FF00;stroke:#263238;stroke-linecap:round;stroke-linejoin:round;stroke-miterlimit:10;" points="
						228.572,214.494 235.199,220.086 235.199,221.329 222.979,221.329 222.358,216.979 					"/>
					<polygon style="fill:#FFFFFF;stroke:#263238;stroke-linecap:round;stroke-linejoin:round;stroke-miterlimit:10;" points="
						222.979,221.329 222.802,220.086 235.199,220.086 235.199,221.329 					"/>
				</g>
			</g>
		</g>
		<polygon style="fill:#FFFFFF;stroke:#263238;stroke-linecap:round;stroke-linejoin:round;stroke-miterlimit:10;" points="
			228.592,107.872 222.213,110.424 224.453,114.63 229.696,111.717 		"/>
		<path style="fill:#FFFFFF;stroke:#263238;stroke-linecap:round;stroke-linejoin:round;stroke-miterlimit:10;" d="M181.852,108.892
			l-4.924-2.41c0,0-2.145,1.655-1.929,3.5c0.216,1.846,1.61,2.69,1.61,2.69l5.871-0.256L181.852,108.892z"/>
		<path style="fill:#FFFFFF;stroke:#263238;stroke-linecap:round;stroke-linejoin:round;stroke-miterlimit:10;" d="M193.708,125.028
			l-2.558-0.024l-8.975-13.343c0,0-3.348-1.551-5.567,1.012l12.575,14.793l1.751,2.458l2.43-2.911l3.029,0.977l0.8-0.849
			L193.708,125.028z"/>
	</g>
</g>
<g id="Character_1">
	<g>
		<g>
			<path style="fill:#263238;" d="M167.669,441.253c0,1.587-16.268,2.873-36.335,2.873c-20.067,0-36.335-1.286-36.335-2.873
				c0-1.587,16.267-2.873,36.335-2.873C151.401,438.38,167.669,439.667,167.669,441.253z"/>
			<g>
				<g>
					<polygon style="fill:#C6FF00;stroke:#263238;stroke-linecap:round;stroke-linejoin:round;stroke-miterlimit:10;" points="
						110.3,433.521 117.292,439.421 117.292,440.732 104.4,440.732 105.299,434.401 					"/>
				</g>
				<path style="fill:#FFFFFF;stroke:#263238;stroke-linecap:round;stroke-linejoin:round;stroke-miterlimit:10;" d="
					M126.408,279.472c0,0,0.85-1.701,1.559-0.142c0.709,1.559,0.567,4.252,0.142,4.96c-0.425,0.709-2.126,1.701-2.126,0.992
					C125.983,284.574,126.408,279.472,126.408,279.472z"/>
				<path style="fill:#FFFFFF;stroke:#263238;stroke-linecap:round;stroke-linejoin:round;stroke-miterlimit:10;" d="
					M112.685,282.775c0,0-1.292-1.395-1.536,0.299c-0.245,1.695,0.644,4.241,1.25,4.802c0.606,0.562,2.516,1.039,2.318,0.359
					C114.518,287.555,112.685,282.775,112.685,282.775z"/>
				<path style="fill:#FFFFFF;stroke:#263238;stroke-linecap:round;stroke-linejoin:round;stroke-miterlimit:10;" d="
					M117.58,296.864c2.026,0,6.586-0.338,6.586-0.338l11.314-4.897l9.794-13.34l4.897-26.68c0,0-1.88-3.504-2.082-4.513
					c-0.202-1.009,0.605-4.037,0.605-4.037s0.606-1.413,0.807-0.202c0.202,1.211,0,3.028,0,3.028l0.605,1.009
					c0,0,1.009-4.642,1.615-5.853s2.018-0.807,2.018,0c0,0.807,0.606,2.826,0.807,4.44c0.202,1.615-2.013,6.803-2.013,6.803
					l-0.676,28.538c0,0-14.184,22.796-15.029,23.641s-0.676,18.237-0.844,20.939c-0.169,2.702,1.013,7.768,0.675,8.781
					c-0.338,1.013-1.857,3.715-6.923,4.897c-5.066,1.182-14.353,0.338-15.366-0.844c-1.013-1.182-1.013-4.559-1.013-4.559
					s-5.107-15.14-5.107-16.491c0-0.795-1.343-6.438-2.45-10.951c-0.812-3.313,1.106-6.676,4.366-7.679
					C112.402,297.868,116.697,296.864,117.58,296.864z"/>
				<path style="fill:#C6FF00;stroke:#263238;stroke-linecap:round;stroke-linejoin:round;stroke-miterlimit:10;" d="
					M124.166,296.526l11.314-4.897l9.794-13.34l4.152-22.62l3.027,0.092l-0.593,25.061c0,0-14.184,22.796-15.029,23.641
					s-0.676,18.237-0.844,20.939c-0.169,2.702,1.013,7.768,0.675,8.781c-0.338,1.013-1.857,3.715-6.923,4.897
					c-5.066,1.182-14.353,0.338-15.366-0.844c-1.013-1.182-1.013-4.559-1.013-4.559s-5.107-15.14-5.107-16.491
					c0-0.785-1.313-6.308-2.412-10.794c-0.833-3.401,1.133-6.859,4.481-7.883c2.182-0.668,6.396-1.644,7.259-1.644
					C119.606,296.864,124.166,296.526,124.166,296.526z"/>
				<path style="fill:#FFFFFF;stroke:#263238;stroke-linecap:round;stroke-linejoin:round;stroke-miterlimit:10;" d="
					M123.49,292.474c0,0,3.04,1.689,3.546,2.195c0.507,0.507,3.039,9.118,3.039,9.118l-5.404-3.039l-5.91,4.728
					c0,0-2.195-6.417-2.026-8.781c0.169-2.364,2.364-3.884,2.364-3.884L123.49,292.474z"/>
				<polygon style="fill:#FFFFFF;stroke:#263238;stroke-linecap:round;stroke-linejoin:round;stroke-miterlimit:10;" points="
					124.166,291.798 124.335,305.138 118.256,292.98 				"/>
				<path style="fill:#FFFFFF;stroke:#263238;stroke-linecap:round;stroke-linejoin:round;stroke-miterlimit:10;" d="M112.787,283.7
					c0.916,5.226,5.252,11.892,9.043,11.227c3.791-0.664,5.602-8.408,4.686-13.633c-0.916-5.226-4.732-8.923-8.522-8.259
					C114.202,273.7,111.871,278.475,112.787,283.7z"/>
				<path style="fill:#263238;stroke:#263238;stroke-linecap:round;stroke-linejoin:round;stroke-miterlimit:10;" d="
					M126.774,282.67c0,0-1.503,0.471-1.295-0.093c0.207-0.564-0.408-2.327-0.408-2.327s-0.52-0.229-0.966-0.95
					c-0.446-0.721,0.139-1.943-0.024-2.874c-0.163-0.931-4.645,1.773-5.421,1.909c-0.775,0.136-5.309-0.189-5.309-0.189
					s1.265,2.656,0.854,3.048c-0.411,0.392-0.477,1.842-0.477,1.842s0.9,2.4,0.827,2.893c-0.074,0.492-0.95,0.966-1.187,0.528
					c-0.237-0.438-0.943-4.471-0.943-4.471s-1.059,0.345-1.439-1.826c-0.381-2.172,0.018-7.197,2.026-8.509
					c2.008-1.311,6.972-2.181,9.178-1.449c2.207,0.732,4.472,5.451,4.306,7.239C126.331,279.23,126.774,282.67,126.774,282.67z"/>
				<polygon style="fill:#FFFFFF;stroke:#263238;stroke-linecap:round;stroke-linejoin:round;stroke-miterlimit:10;" points="
					117.292,439.421 117.292,440.732 104.4,440.732 104.668,438.841 116.605,438.841 				"/>
				<g>
					<polygon style="fill:#C6FF00;stroke:#263238;stroke-linecap:round;stroke-linejoin:round;stroke-miterlimit:10;" points="
						141.63,432.988 149.788,439.421 149.788,440.732 136.088,440.732 136.988,433.19 					"/>
				</g>
				<polygon style="fill:#FFFFFF;stroke:#263238;stroke-linecap:round;stroke-linejoin:round;stroke-miterlimit:10;" points="
					149.788,439.421 149.788,440.732 136.088,440.732 136.357,438.841 149.101,438.841 				"/>
				<g>
					<path style="fill:#263238;stroke:#263238;stroke-linecap:round;stroke-linejoin:round;stroke-miterlimit:10;" d="
						M136.661,334.183c0,0,4.363,21.905,5.574,30.584c1.211,8.679,2.22,32.496,2.22,41.175c0,8.679-2.826,27.046-2.826,27.046
						l-4.642,0.202c0,0-4.037-48.037-5.248-51.67s-4.037-14.129-4.037-14.129s-3.229,26.037-3.633,29.064
						c-0.404,3.027-13.927,37.542-13.927,37.542l-4.844,0.404c0,0,7.872-38.349,8.073-40.973c0.202-2.624-1.615-39.156-0.605-45.615
						c1.009-6.459,1.615-10.697,1.615-10.697S128.665,339.121,136.661,334.183z"/>
					
						<line style="fill:none;stroke:#FFFFFF;stroke-linecap:round;stroke-linejoin:round;stroke-miterlimit:10;" x1="127.703" y1="367.391" x2="129.116" y2="354.473"/>
				</g>
			</g>
		</g>
		<g>
			<path style="fill:#C6FF00;stroke:#263238;stroke-linecap:round;stroke-linejoin:round;stroke-miterlimit:10;" d="M108.43,301.289
				c0,0-3.675,3.239-1.229,7.51c1.646,2.875,16.977,24.822,19.496,25.507s31.147,0.167,31.147,0.167l6.318-0.357l4.805-2.752
				l-6.349-0.192c0,0,4.011-2.156,2.089-2.047c-1.923,0.109-8.07,3.488-8.07,3.488l-26.727-4.826L119.452,308.3"/>
			<path style="fill:#FFFFFF;stroke:#263238;stroke-linecap:round;stroke-linejoin:round;stroke-miterlimit:10;" d="
				M164.707,329.124c-1.923,0.109-8.07,3.488-8.07,3.488l-0.557-0.1l0.113,1.989c1.036-0.016,1.652-0.028,1.652-0.028l6.318-0.357
				l4.805-2.752l-6.349-0.192C162.618,331.171,166.63,329.016,164.707,329.124z"/>
		</g>
	</g>
</g>
<g id="Icons">
	<g>
		<g>
			<path style="fill:#263238;" d="M351.613,331.242h-79.521c-3.998,0-7.24-3.241-7.24-7.24v-79.521c0-3.998,3.241-7.24,7.24-7.24
				h79.521c3.998,0,7.24,3.241,7.24,7.24v79.521C358.852,328.001,355.611,331.242,351.613,331.242z"/>
			<path style="fill:#FFFFFF;" d="M356.124,282.96l-15.551-21.856l-24.093,36.733l-24.488-9.479l-20.581,34.389
				c-1.686,2.818,0.344,6.399,3.628,6.399h73.847c3.998,0,7.24-3.241,7.24-7.24V282.96z"/>
			<circle style="fill:#FFFFFF;" cx="289.509" cy="258.588" r="10.064"/>
			<g>
				<path style="fill:#263238;" d="M307.379,320.3c0-1.158,0.859-1.916,1.937-1.916s1.936,0.758,1.936,1.916
					c0,1.137-0.858,1.956-1.936,1.956S307.379,321.438,307.379,320.3z"/>
				<path style="fill:#263238;" d="M325.064,316.727c0,3.374-2.336,5.53-5.35,5.53c-1.338,0-2.436-0.42-3.234-1.298v5.01h-3.114
					v-14.612h2.974v1.237c0.778-0.938,1.937-1.397,3.374-1.397C322.728,311.197,325.064,313.353,325.064,316.727z M321.91,316.727
					c0-1.856-1.178-2.974-2.734-2.974c-1.558,0-2.735,1.118-2.735,2.974s1.178,2.975,2.735,2.975
					C320.733,319.701,321.91,318.583,321.91,316.727z"/>
				<path style="fill:#263238;" d="M338.116,315.948v6.148h-3.114v-5.669c0-1.736-0.799-2.535-2.176-2.535
					c-1.497,0-2.575,0.918-2.575,2.894v5.31h-3.114v-10.739h2.974v1.257c0.838-0.918,2.096-1.417,3.553-1.417
					C336.2,311.197,338.116,312.675,338.116,315.948z"/>
				<path style="fill:#263238;" d="M352.126,311.357v8.943c0,3.992-2.156,5.829-6.028,5.829c-2.036,0-4.012-0.499-5.27-1.477
					l1.238-2.236c0.918,0.739,2.415,1.218,3.793,1.218c2.196,0,3.154-0.998,3.154-2.935v-0.459
					c-0.819,0.898-1.997,1.338-3.394,1.338c-2.975,0-5.37-2.057-5.37-5.191s2.395-5.19,5.37-5.19c1.497,0,2.734,0.499,3.553,1.537
					v-1.377H352.126z M349.052,316.387c0-1.577-1.178-2.635-2.815-2.635c-1.637,0-2.834,1.058-2.834,2.635s1.197,2.635,2.834,2.635
					C347.875,319.023,349.052,317.964,349.052,316.387z"/>
			</g>
		</g>
		<g>
			<path style="fill:#263238;" d="M235.869,331.242h-79.521c-3.998,0-7.24-3.241-7.24-7.24v-79.521c0-3.998,3.241-7.24,7.24-7.24
				h79.521c3.998,0,7.24,3.241,7.24,7.24v79.521C243.109,328.001,239.867,331.242,235.869,331.242z"/>
			<path style="fill:#FFFFFF;" d="M240.38,282.96l-15.551-21.856l-24.093,36.733l-24.488-9.479l-20.581,34.389
				c-1.687,2.818,0.344,6.399,3.628,6.399h73.847c3.998,0,7.24-3.241,7.24-7.24V282.96z"/>
			<circle style="fill:#FFFFFF;" cx="173.765" cy="258.588" r="10.064"/>
			<g>
				<path style="fill:#263238;" d="M196.254,320.391c0-1.272,0.943-2.106,2.129-2.106c1.184,0,2.128,0.834,2.128,2.106
					c0,1.251-0.944,2.15-2.128,2.15C197.198,322.542,196.254,321.642,196.254,320.391z"/>
				<path style="fill:#263238;" d="M199.437,326.14l0.921-2.479c0.373,0.263,0.878,0.417,1.448,0.417
					c0.856,0,1.404-0.549,1.404-1.712v-11.805h3.423v11.783c0,2.721-1.602,4.454-4.454,4.454
					C201.127,326.798,200.096,326.6,199.437,326.14z M202.794,307.006c0-1.075,0.856-1.909,2.128-1.909
					c1.273,0,2.128,0.79,2.128,1.843c0,1.142-0.855,1.976-2.128,1.976C203.65,308.916,202.794,308.082,202.794,307.006z"/>
				<path style="fill:#263238;" d="M222.654,316.463c0,3.708-2.567,6.078-5.88,6.078c-1.47,0-2.677-0.461-3.555-1.427v5.508h-3.423
					v-16.061h3.269v1.36c0.856-1.031,2.128-1.536,3.708-1.536C220.086,310.385,222.654,312.755,222.654,316.463z M219.187,316.463
					c0-2.041-1.295-3.27-3.006-3.27c-1.711,0-3.006,1.228-3.006,3.27c0,2.041,1.294,3.27,3.006,3.27
					C217.892,319.733,219.187,318.504,219.187,316.463z"/>
				<path style="fill:#263238;" d="M237.117,310.561v9.83c0,4.389-2.37,6.407-6.626,6.407c-2.238,0-4.411-0.549-5.793-1.624
					l1.36-2.457c1.009,0.812,2.655,1.338,4.169,1.338c2.414,0,3.467-1.097,3.467-3.226v-0.505c-0.9,0.988-2.194,1.471-3.73,1.471
					c-3.27,0-5.902-2.26-5.902-5.705c0-3.445,2.633-5.705,5.902-5.705c1.646,0,3.006,0.549,3.906,1.689v-1.514H237.117z
					 M233.738,316.09c0-1.733-1.294-2.896-3.094-2.896s-3.116,1.163-3.116,2.896s1.316,2.896,3.116,2.896
					S233.738,317.824,233.738,316.09z"/>
			</g>
		</g>
		<g>
			<g>
				<path style="fill:#263238;" d="M206.811,214.698v-79.521c0-3.998,3.241-7.24,7.24-7.24h79.521c3.998,0,7.24,3.241,7.24,7.24
					v79.521c0,3.998-3.241,7.24-7.24,7.24H214.05C210.052,221.938,206.811,218.696,206.811,214.698z"/>
			</g>
			<g>
				<path style="fill:#FFFFFF;" d="M224.522,182.896c0-1.837,1.362-3.04,3.072-3.04s3.072,1.203,3.072,3.04
					c0,1.805-1.362,3.104-3.072,3.104S224.522,184.701,224.522,182.896z"/>
				<path style="fill:#FFFFFF;" d="M232.533,177.228c0-5.13,3.958-8.772,9.5-8.772c3.578,0,6.397,1.552,7.632,4.339l-3.832,2.058
					c-0.918-1.615-2.28-2.343-3.832-2.343c-2.501,0-4.465,1.742-4.465,4.718c0,2.977,1.964,4.719,4.465,4.719
					c1.552,0,2.914-0.697,3.832-2.343l3.832,2.09c-1.235,2.723-4.053,4.307-7.632,4.307
					C236.491,186,232.533,182.358,232.533,177.228z"/>
				<path style="fill:#FFFFFF;" d="M250.865,184.163l1.646-3.547c1.52,0.981,3.832,1.646,5.922,1.646
					c2.28,0,3.135-0.601,3.135-1.552c0-2.787-10.292,0.064-10.292-6.745c0-3.23,2.914-5.51,7.885-5.51
					c2.343,0,4.94,0.539,6.555,1.489l-1.647,3.515c-1.678-0.95-3.357-1.266-4.908-1.266c-2.217,0-3.167,0.697-3.167,1.583
					c0,2.913,10.292,0.095,10.292,6.808c0,3.167-2.945,5.416-8.043,5.416C255.362,186,252.449,185.208,250.865,184.163z"/>
				<path style="fill:#FFFFFF;" d="M267.678,184.163l1.647-3.547c1.52,0.981,3.832,1.646,5.922,1.646
					c2.28,0,3.135-0.601,3.135-1.552c0-2.787-10.292,0.064-10.292-6.745c0-3.23,2.914-5.51,7.885-5.51
					c2.344,0,4.94,0.539,6.555,1.489l-1.646,3.515c-1.678-0.95-3.357-1.266-4.908-1.266c-2.217,0-3.167,0.697-3.167,1.583
					c0,2.913,10.292,0.095,10.292,6.808c0,3.167-2.945,5.416-8.043,5.416C272.175,186,269.261,185.208,267.678,184.163z"/>
			</g>
		</g>
		<g>
			<g>
				<path style="fill:#263238;" d="M206.811,433.492v-79.521c0-3.999,3.241-7.24,7.24-7.24h79.521c3.998,0,7.24,3.241,7.24,7.24
					v79.521c0,3.998-3.241,7.24-7.24,7.24H214.05C210.052,440.732,206.811,437.491,206.811,433.492z"/>
			</g>
			<g>
				<path style="fill:#FFFFFF;" d="M236.818,399.532c0-1.938,1.436-3.207,3.24-3.207c1.804,0,3.24,1.27,3.24,3.207
					c0,1.903-1.436,3.273-3.24,3.273C238.254,402.805,236.818,401.435,236.818,399.532z"/>
				<path style="fill:#FFFFFF;" d="M241.659,408.283l1.403-3.774c0.568,0.4,1.336,0.635,2.204,0.635
					c1.303,0,2.138-0.835,2.138-2.605v-17.97h5.211v17.936c0,4.142-2.438,6.78-6.78,6.78
					C244.231,409.285,242.661,408.984,241.659,408.283z M246.77,379.157c0-1.637,1.303-2.906,3.24-2.906
					c1.937,0,3.24,1.202,3.24,2.806c0,1.737-1.303,3.006-3.24,3.006C248.072,382.062,246.77,380.793,246.77,379.157z"/>
				<path style="fill:#FFFFFF;" d="M255.686,400.868l1.737-3.741c1.603,1.035,4.041,1.737,6.246,1.737
					c2.404,0,3.307-0.635,3.307-1.637c0-2.94-10.855,0.066-10.855-7.115c0-3.406,3.072-5.811,8.316-5.811
					c2.472,0,5.211,0.568,6.914,1.57l-1.736,3.707c-1.771-1.002-3.541-1.336-5.178-1.336c-2.338,0-3.34,0.735-3.34,1.67
					c0,3.073,10.855,0.101,10.855,7.182c0,3.34-3.107,5.712-8.484,5.712C260.429,402.805,257.355,401.97,255.686,400.868z"/>
			</g>
		</g>
	</g>
</g>
</svg>
